<svg width="16" height="16" viewBox="0 0 16 16" fill="none" xmlns="http://www.w3.org/2000/svg">
    <path d="M8 0C3.58645 0 0 3.58645 0 8C0 12.4135 3.58645 16 8 16C12.4135 16 16 12.4135 16 8C16 3.58645 12.4135 0 8 0ZM0.812835 7.99287C0.812835 6.95187 1.03387 5.96078 1.43315 5.06952L4.86274 14.467C2.46702 13.3048 0.812835 10.8449 0.812835 7.99287ZM8 15.1872C7.29412 15.1872 6.60963 15.0802 5.96791 14.8948L8.12834 8.62745L10.3387 14.6809C10.3529 14.7166 10.3743 14.7522 10.3886 14.7807C9.63993 15.0446 8.84135 15.1872 8 15.1872ZM8.99109 4.62745C9.42602 4.60606 9.81105 4.55615 9.81105 4.55615C10.1961 4.51337 10.1533 3.94296 9.76827 3.96435C9.76827 3.96435 8.60606 4.05704 7.85027 4.05704C7.14438 4.05704 5.95365 3.96435 5.95365 3.96435C5.56863 3.94296 5.51872 4.53476 5.91087 4.55615C5.91087 4.55615 6.27451 4.59893 6.66667 4.62745L7.7861 7.70053L6.21747 12.4135L3.60071 4.62745C4.03565 4.60606 4.42068 4.55615 4.42068 4.55615C4.8057 4.51337 4.76292 3.94296 4.3779 3.96435C4.3779 3.96435 3.21569 4.05704 2.45989 4.05704C2.32442 4.05704 2.16756 4.05704 1.99643 4.04991C3.27986 2.09626 5.4902 0.805704 8.00713 0.805704C9.88235 0.805704 11.5865 1.51872 12.8627 2.69519C12.8342 2.69519 12.7986 2.68806 12.7701 2.68806C12.0642 2.68806 11.5651 3.30125 11.5651 3.96435C11.5651 4.55615 11.9073 5.05526 12.2709 5.65419C12.5419 6.13191 12.8627 6.7451 12.8627 7.63636C12.8627 8.24955 12.6274 8.96257 12.3137 9.96078L11.5936 12.3565L8.99109 4.62745ZM14.3102 4.54902C14.8734 5.57576 15.1943 6.75223 15.1943 8C15.1943 10.6524 13.754 12.9697 11.6221 14.2175L13.8182 7.86453C14.2317 6.83779 14.3672 6.01782 14.3672 5.29055C14.3601 5.01961 14.3458 4.77718 14.3102 4.54902Z" fill="#2C3E50"/>
</svg>
