<svg width="24" height="24" viewBox="0 0 24 24" fill="none" xmlns="http://www.w3.org/2000/svg">
    <path d="M12 24C18.6274 24 24 18.6274 24 12C24 5.37258 18.6274 0 12 0C5.37258 0 0 5.37258 0 12C0 18.6274 5.37258 24 12 24Z" fill="#4C3089"/>
    <path d="M5.72624 6.50314H7.73621C8.28729 6.50314 8.73395 6.66266 9.0762 6.9817C9.41844 7.29495 9.58956 7.7039 9.58956 8.20857C9.58956 8.85826 9.36914 9.37453 8.92828 9.75738C8.48742 10.1344 7.91314 10.3259 7.20544 10.3317H6.1178L5.62183 12.6723H4.42107L5.72624 6.50314ZM7.45778 7.54728H6.71818L6.33533 9.29622H7.19674C7.53899 9.29622 7.81743 9.2092 8.03205 9.03518C8.24668 8.86116 8.354 8.61462 8.354 8.29558C8.354 8.06355 8.27859 7.88082 8.12777 7.74741C7.97695 7.61399 7.75362 7.54728 7.45778 7.54728ZM14.1039 12.6723H12.8944L13.4339 10.1141H10.9541L10.4146 12.6723H9.21385L10.519 6.50314H11.7198L11.1977 8.98297H13.6776L14.1996 6.50314H15.4091L14.1039 12.6723ZM16.4674 6.50314H18.4774C19.0285 6.50314 19.4751 6.66266 19.8174 6.9817C20.1596 7.29495 20.3308 7.7039 20.3308 8.20857C20.3308 8.85826 20.1103 9.37453 19.6695 9.75738C19.2286 10.1344 18.6543 10.3259 17.9466 10.3317H16.859L16.363 12.6723H15.1623L16.4674 6.50314ZM18.199 7.54728H17.4594L17.0765 9.29622H17.9379C18.2802 9.29622 18.5586 9.2092 18.7732 9.03518C18.9879 8.86116 19.0952 8.61462 19.0952 8.29558C19.0952 8.06355 19.0198 7.88082 18.869 7.74741C18.7181 7.61399 18.4948 7.54728 18.199 7.54728Z" fill="white"/>
    <rect x="6.80762" y="12.5243" width="10.1141" height="7.39108" rx="2.19651" fill="#2893F5"/>
    <path d="M10.2388 17.7267C10.2027 17.6996 10.1846 17.6996 10.1665 17.7267C10.1485 17.7448 10.1304 17.7629 10.1214 17.79C10.0853 17.8532 10.0582 17.9254 10.0311 17.9977C10.004 18.0518 9.95882 18.0789 9.89561 18.0428C9.77821 17.9886 9.66081 17.9164 9.64275 17.7719C9.63372 17.7177 9.60662 17.6635 9.58856 17.6184C9.56147 17.5281 9.52535 17.4378 9.49826 17.3475C9.4531 17.1759 9.46213 16.9953 9.46213 16.8237C9.46213 16.7875 9.47116 16.7695 9.48923 16.7334C9.52535 16.6792 9.55244 16.625 9.56147 16.5618C9.57953 16.4444 9.58856 16.327 9.60662 16.2005C9.61566 16.047 9.62469 15.8845 9.64275 15.731C9.66081 15.6045 9.66984 15.4691 9.72402 15.3517C9.76015 15.2794 9.78724 15.2072 9.82336 15.1349C9.90464 15.0085 9.98591 14.8821 10.1214 14.8008C10.1846 14.7647 10.2207 14.7556 10.2839 14.8098C10.3833 14.8821 10.4645 14.9633 10.4375 15.1078C10.4375 15.1259 10.4375 15.144 10.4375 15.162C10.4375 15.2252 10.4284 15.2884 10.4284 15.3607C10.4375 15.442 10.4104 15.5323 10.4736 15.6045C10.4826 15.6136 10.4736 15.6406 10.4736 15.6587C10.4736 15.6768 10.4736 15.7039 10.4736 15.731C10.4826 15.758 10.4736 15.7942 10.4916 15.8213C10.5097 15.8484 10.5458 15.8484 10.5819 15.8664C10.5819 15.9025 10.591 15.9387 10.6 15.9838C10.609 16.0651 10.6722 16.1012 10.7535 16.0741C10.7896 16.0651 10.8348 16.0561 10.8709 16.0561C10.9251 16.0561 10.9251 16.0561 10.9432 16.1283C11.0064 16.1193 11.0696 16.1193 11.1238 16.1012C11.1599 16.0922 11.196 16.0651 11.2141 16.038C11.2322 16.0019 11.2592 15.9838 11.2954 15.9748C11.3134 15.9206 11.3225 15.8664 11.3315 15.8303C11.3676 15.7942 11.3947 15.7761 11.4037 15.758C11.4218 15.6858 11.4399 15.6136 11.4489 15.5413C11.467 15.46 11.485 15.3788 11.494 15.2975C11.5031 15.2343 11.5211 15.153 11.494 15.1078C11.4128 14.9362 11.3676 14.7556 11.2683 14.6021C11.2592 14.5931 11.2592 14.575 11.2502 14.566C11.2502 14.4937 11.2051 14.4396 11.1689 14.3854C11.1148 14.2951 11.0425 14.2228 10.9703 14.1506C10.8619 14.0422 10.7355 13.979 10.6 13.9429C10.5007 13.9248 10.4013 13.9158 10.293 13.8977C10.2568 13.8887 10.2207 13.8887 10.1846 13.8977C10.0853 13.9158 9.98591 13.9429 9.88658 13.988C9.66984 14.0783 9.46213 14.1957 9.29055 14.3583C9.10994 14.5299 8.95641 14.7195 8.84804 14.9362C8.73968 15.144 8.70355 15.3697 8.64937 15.5955C8.61325 15.731 8.58615 15.8664 8.55906 16.0019C8.53197 16.1554 8.50488 16.3089 8.541 16.4715C8.541 16.5076 8.541 16.5437 8.53197 16.5798C8.52294 16.6792 8.51391 16.7785 8.50488 16.8779C8.50488 17.0223 8.50488 17.1578 8.50488 17.2933C8.50488 17.3565 8.49585 17.4107 8.50488 17.4739C8.53197 17.5913 8.55003 17.7087 8.58615 17.8261C8.64937 17.9977 8.73065 18.1512 8.82998 18.2957C8.92029 18.4311 9.03769 18.5485 9.16412 18.6569C9.20927 18.684 9.23637 18.7292 9.28152 18.7472C9.48019 18.8375 9.66984 18.9278 9.87755 18.9639C9.95882 18.982 10.0401 19.0001 10.1304 18.982C10.2388 18.9639 10.3471 18.9549 10.4555 18.9459C10.6271 18.9278 10.7535 18.8646 10.8348 18.7201C10.88 18.6298 10.9522 18.5756 11.0154 18.5305C11.1509 18.4402 11.2322 18.3137 11.2683 18.1602C11.2954 18.0609 11.3044 17.9525 11.3315 17.8532C11.3496 17.7809 11.3586 17.7087 11.3586 17.6364C11.3586 17.5913 11.3586 17.5371 11.3586 17.4919C11.3586 17.4468 11.3586 17.3926 11.3586 17.3475C11.3586 17.2842 11.3044 17.221 11.3315 17.1397C11.3405 17.1036 11.3225 17.0494 11.2683 17.0223C11.2502 17.0133 11.2412 17.0043 11.2322 16.9862C11.1599 16.8959 11.0696 16.8417 10.9793 16.7785C10.9341 16.7424 10.8709 16.7153 10.8167 16.7334C10.7626 16.7514 10.6993 16.7695 10.6722 16.8237C10.6452 16.8688 10.591 16.8959 10.591 16.9501C10.591 16.9591 10.5639 16.9772 10.5458 16.9772C10.4736 16.9862 10.4465 17.0494 10.4375 17.1036C10.4104 17.1939 10.4013 17.2933 10.3833 17.3926C10.3833 17.4378 10.3652 17.4829 10.3381 17.5281C10.302 17.5913 10.2749 17.6545 10.2388 17.7267ZM11.0606 17.5371C11.0244 17.519 10.9974 17.51 10.9612 17.501C11.0064 17.4558 11.0425 17.4107 11.0786 17.3565C11.1238 17.4287 11.1509 17.4739 11.1148 17.5371C11.1057 17.5461 11.1057 17.5461 11.1057 17.5552C11.1418 17.6816 11.0606 17.79 11.0425 17.9164C11.0425 17.9615 10.9974 18.0157 10.9703 18.0518C10.9432 18.097 10.907 18.1422 10.8529 18.1963C10.8438 18.1692 10.8348 18.1512 10.8258 18.1241C10.8258 18.1241 10.8167 18.1331 10.8077 18.1331C10.7987 18.1873 10.7896 18.2325 10.7716 18.3047C10.7264 18.2325 10.6542 18.2054 10.6632 18.1241C10.6903 18.097 10.7174 18.0609 10.7535 18.0518C10.8077 18.0248 10.8258 17.9796 10.8529 17.9435C10.889 17.8803 10.907 17.817 10.9432 17.7538C10.9522 17.7358 10.9703 17.7177 10.9974 17.6906C10.9883 17.6455 10.9883 17.5822 11.0606 17.5371ZM11.2051 18.0067C11.196 18.0338 11.187 18.0609 11.178 18.088C11.1509 18.1331 11.1328 18.1783 11.1148 18.2234C11.0877 18.2686 11.1148 18.3408 11.0515 18.377C11.0064 18.404 10.9703 18.4582 10.9341 18.5034C10.9161 18.5305 10.898 18.5576 10.8709 18.5847C10.7987 18.5666 10.7626 18.5214 10.7445 18.4673C10.7987 18.386 10.88 18.3499 10.9341 18.2866C11.0154 18.2144 11.0786 18.1331 11.1418 18.0518C11.1599 18.0338 11.178 18.0157 11.196 17.9977C11.196 17.9977 11.2051 17.9977 11.2051 18.0067ZM10.7716 15.153C10.7355 15.1349 10.7084 15.1169 10.7355 15.0807C10.7716 15.0085 10.7626 14.9362 10.7806 14.864C10.7896 14.7827 10.7896 14.7105 10.7626 14.6382C10.7535 14.6202 10.7626 14.5931 10.7626 14.5479C10.7806 14.575 10.7896 14.575 10.7896 14.5931C10.8619 14.7376 10.8438 14.9001 10.8258 15.0536C10.8258 15.0898 10.7896 15.1169 10.7716 15.153ZM10.8077 15.1891C10.8348 15.153 10.8529 15.1259 10.8619 15.0898C10.8709 15.0627 10.8709 15.0266 10.8709 14.9995C10.88 14.9995 10.88 14.9995 10.889 14.9995C10.898 15.0356 10.907 15.0717 10.9161 15.1259C10.9522 15.1349 10.9883 15.153 10.9883 15.2072C10.9883 15.2162 11.0064 15.2433 11.0154 15.2523C11.0606 15.2704 11.0515 15.3065 11.0425 15.3517C10.9522 15.3065 10.88 15.2523 10.8077 15.1891ZM10.5368 18.4311C10.5729 18.4221 10.609 18.4221 10.6361 18.4492C10.6813 18.5034 10.7174 18.5485 10.7716 18.6118C10.6903 18.6208 10.6722 18.5666 10.6361 18.5395C10.6 18.5124 10.5368 18.5034 10.5368 18.4311ZM10.609 18.6298C10.5639 18.6208 10.5368 18.6208 10.5097 18.6208C10.5007 18.6118 10.4826 18.6027 10.4736 18.5847C10.4736 18.5756 10.4826 18.5576 10.4916 18.5485C10.5007 18.5485 10.5278 18.5485 10.5368 18.5576C10.5639 18.5756 10.5819 18.5937 10.609 18.6298ZM10.3291 18.1331C10.3652 18.1331 10.3923 18.1331 10.4284 18.1331C10.4194 18.1692 10.4194 18.1963 10.4104 18.2234C10.3652 18.2054 10.3381 18.1873 10.3291 18.1331ZM10.8529 15.6497C10.7896 15.6768 10.7806 15.6136 10.7445 15.5955C10.8167 15.5594 10.8258 15.5594 10.8529 15.6497ZM10.7896 15.7942C10.8438 15.7942 10.898 15.7942 10.9612 15.7942C10.907 15.8303 10.907 15.8303 10.7896 15.7942ZM11.1599 15.758C11.2412 15.7219 11.2412 15.7219 11.2773 15.7942C11.2231 15.7761 11.196 15.7671 11.1599 15.758ZM11.1328 15.7851C11.0786 15.8122 11.0786 15.8122 11.0425 15.7942C11.0606 15.749 11.0877 15.758 11.1328 15.7851ZM9.09187 16.7063C9.09187 16.6792 9.09187 16.6431 9.09187 16.616C9.13703 16.6431 9.10994 16.6792 9.10994 16.7063C9.10994 16.7063 9.1009 16.7063 9.09187 16.7063ZM10.2207 18.386C10.2388 18.404 10.293 18.386 10.293 18.4582C10.2568 18.4311 10.2388 18.4221 10.2117 18.404C10.2117 18.395 10.2207 18.395 10.2207 18.386ZM14.4645 15.4691C14.4916 15.451 14.5187 15.451 14.5368 15.4329C14.6 15.3697 14.6632 15.3065 14.7264 15.2343C14.7445 15.2162 14.7625 15.2072 14.7625 15.1801C14.7806 15.1078 14.7987 15.0266 14.8077 14.9453C14.8077 14.7827 14.7896 14.6292 14.7264 14.4757C14.6813 14.3583 14.6361 14.2319 14.5458 14.1325C14.4103 13.9609 14.2207 13.8526 14.013 13.7803C13.9317 13.7532 13.8504 13.7442 13.7692 13.7261C13.724 13.7081 13.6788 13.69 13.6337 13.69C13.5073 13.6719 13.3718 13.6629 13.2454 13.6449C13.2183 13.6449 13.1822 13.6358 13.146 13.6449C12.9293 13.6719 12.7126 13.7352 12.4958 13.8164C12.243 13.9158 12.0894 14.1145 11.972 14.3493C11.9179 14.4486 11.8727 14.557 11.8275 14.6653C11.8185 14.6924 11.8095 14.7195 11.8095 14.7556C11.8095 14.873 11.7734 14.9904 11.7824 15.1169C11.8005 15.2523 11.8275 15.3788 11.9088 15.4962C12.0262 15.6948 12.1978 15.8393 12.3694 15.9838C12.4597 16.0561 12.5681 16.1193 12.6493 16.2005C12.7396 16.2818 12.83 16.3541 12.9293 16.4173C13.0467 16.4895 13.1641 16.5527 13.2725 16.6431C13.3357 16.6882 13.3899 16.7424 13.435 16.8056C13.4711 16.8688 13.4982 16.9501 13.5344 17.0133C13.6066 17.1578 13.6427 17.3113 13.6879 17.4558C13.7059 17.519 13.6969 17.5822 13.6608 17.6364C13.6518 17.6545 13.6427 17.6726 13.6518 17.6906C13.6608 17.7358 13.6518 17.79 13.6247 17.8261C13.5705 17.9525 13.5524 18.1241 13.3718 18.1602C13.3718 18.1602 13.3718 18.1692 13.3628 18.1692C13.3086 18.1692 13.2454 18.1783 13.1822 18.1873C13.137 18.1873 13.128 18.1602 13.1009 18.1331C13.0918 18.1241 13.0738 18.1151 13.0557 18.106C13.0196 18.0699 12.9744 18.0428 12.9383 18.0067C12.9022 17.9706 12.8661 17.9254 12.83 17.8893C12.6855 17.7358 12.5771 17.5642 12.5771 17.3475C12.5771 17.3113 12.559 17.2752 12.541 17.2391C12.5139 17.1578 12.4778 17.0765 12.4326 16.9953C12.4145 16.9501 12.3875 16.9049 12.3513 16.8688C12.3062 16.8237 12.252 16.7875 12.2068 16.7424C12.1707 16.7063 12.1256 16.6882 12.0804 16.7063C12.0443 16.7153 12.0262 16.7153 11.9991 16.6972C11.963 16.6792 11.9359 16.6972 11.9359 16.7334C11.9269 16.8056 11.9269 16.8146 11.8637 16.8146C11.8275 16.8146 11.8095 16.8237 11.7914 16.8508C11.7372 16.914 11.665 16.9682 11.5837 17.0043C11.5566 17.0133 11.5205 17.0585 11.5115 17.0856C11.5024 17.1397 11.5024 17.1939 11.5115 17.2481C11.5205 17.3294 11.5476 17.4016 11.5476 17.4829C11.5476 17.6726 11.5927 17.8351 11.674 17.9977C11.6831 18.0157 11.6921 18.0338 11.7011 18.0518C11.7282 18.1151 11.7553 18.1873 11.7914 18.2505C11.8456 18.3228 11.9179 18.377 11.963 18.4582C12.0353 18.5666 12.1346 18.6479 12.2249 18.7382C12.3513 18.8556 12.4868 18.9459 12.6313 19.0272C12.7487 19.0994 12.8661 19.1446 13.0015 19.1265C13.0467 19.1175 13.1009 19.1355 13.137 19.1536C13.1822 19.1717 13.2183 19.1987 13.2634 19.2258C13.4079 19.2981 13.6066 19.3252 13.733 19.1897C13.733 19.1717 13.724 19.1536 13.724 19.1265C13.7692 19.1175 13.7782 19.1717 13.8053 19.1717C13.8414 19.1717 13.8956 19.1626 13.9136 19.1807C13.9859 19.2439 14.0401 19.1987 14.0943 19.1626C14.1484 19.1265 14.1936 19.0813 14.2387 19.0452C14.2839 19.0181 14.3291 19.0001 14.3832 18.982C14.4645 18.9639 14.4645 18.973 14.4735 18.8917C14.5277 18.9007 14.5548 18.8827 14.5819 18.8285C14.609 18.7743 14.6361 18.7201 14.6632 18.6659C14.7716 18.4763 14.8167 18.2866 14.8167 18.0789C14.8167 17.8622 14.8167 17.6455 14.7896 17.4287C14.7535 17.2301 14.7083 17.0314 14.618 16.8508C14.5819 16.7785 14.5458 16.7153 14.5097 16.6521C14.4194 16.4895 14.3381 16.336 14.2026 16.2096C14.1033 16.1283 14.022 16.029 13.9317 15.9477C13.8956 15.9116 13.8504 15.8754 13.8143 15.8484C13.715 15.7761 13.6066 15.7039 13.5073 15.6316C13.417 15.5684 13.3266 15.4871 13.2183 15.4239C13.0738 15.3336 12.9654 15.1981 12.857 15.0717C12.8209 15.0266 12.8119 14.9543 12.8029 14.9001C12.8029 14.864 12.8209 14.8188 12.8751 14.8008C13.0106 14.7466 13.1551 14.6924 13.3086 14.6744C13.3899 14.6653 13.444 14.6834 13.5163 14.7195C13.5976 14.7647 13.6608 14.8279 13.715 14.9001C13.7601 14.9633 13.7872 15.0175 13.7872 15.0898C13.7962 15.162 13.8143 15.2252 13.8324 15.2884C13.8504 15.3968 13.9407 15.4691 13.9588 15.5774C13.9588 15.5865 13.9859 15.6136 13.9949 15.6136C14.0581 15.6316 14.1123 15.6497 14.1755 15.6226C14.2026 15.6136 14.2297 15.6136 14.2478 15.6045C14.32 15.5865 14.3923 15.5684 14.4555 15.5413C14.4645 15.5142 14.4645 15.4871 14.4645 15.4691ZM13.9588 18.7472C13.8956 18.7111 13.8504 18.6479 13.8053 18.5937C13.8053 18.5847 13.8053 18.5666 13.7962 18.5395C13.8233 18.5485 13.8324 18.5485 13.8504 18.5576C13.9498 18.6479 14.0943 18.6298 14.1846 18.5214C14.2658 18.4221 14.3471 18.3318 14.4103 18.2325C14.4374 18.1873 14.4645 18.2054 14.4916 18.2776C14.4735 18.2866 14.4555 18.2866 14.4284 18.2957C14.4465 18.3499 14.4284 18.404 14.3923 18.4492C14.4465 18.5034 14.3561 18.5395 14.4013 18.6027C14.3652 18.5937 14.3381 18.5937 14.32 18.5937C14.32 18.5937 14.302 18.6027 14.311 18.6118C14.3291 18.6659 14.302 18.7111 14.2658 18.7472C14.2207 18.7833 14.2117 18.7924 14.1484 18.7562C14.1665 18.7743 14.1846 18.7924 14.2026 18.8195C14.1846 18.8465 14.1575 18.8646 14.1213 18.9007C14.1213 18.8465 14.1213 18.8014 14.1213 18.7653C14.0852 18.7562 14.0672 18.7562 14.0581 18.7924C14.0581 18.8014 14.022 18.8104 14.0039 18.8195C14.0039 18.7833 13.9317 18.8014 13.9588 18.7472ZM14.4374 17.9706C14.4465 18.0789 14.4103 18.1602 14.3291 18.2234C14.2929 18.2596 14.2658 18.2957 14.2568 18.3499C14.2478 18.395 14.1665 18.4582 14.1123 18.4673C14.0852 18.4673 14.0581 18.4673 14.013 18.4763C14.013 18.4311 14.013 18.386 14.0039 18.3499C14.0039 18.3408 13.9949 18.3318 13.9859 18.3228C13.9678 18.3047 13.9678 18.3047 13.9769 18.2596C14.031 18.2686 14.0852 18.2596 14.1123 18.3318C14.1484 18.3047 14.1936 18.2957 14.2207 18.2686C14.2568 18.2415 14.2749 18.1963 14.2929 18.1512C14.32 18.0789 14.3652 18.0157 14.4374 17.9706ZM13.4711 19.0091C13.417 18.973 13.3266 19.0001 13.3086 18.9007C13.2815 18.9278 13.2634 18.9459 13.2454 18.973C13.2002 18.9278 13.2092 18.8736 13.2092 18.8285C13.2454 18.8104 13.2725 18.7924 13.2996 18.7833C13.3266 18.7743 13.3628 18.7653 13.3989 18.7653C13.426 18.8195 13.4531 18.8736 13.4892 18.9278C13.5073 18.9549 13.5073 18.982 13.4711 19.0091ZM14.1033 18.8736C14.022 18.9278 13.9498 18.9459 13.8775 18.9549C13.8143 18.9639 13.8053 18.9098 13.7962 18.8556C13.8414 18.8646 13.8775 18.8827 13.9317 18.8917C13.9227 18.8646 13.9227 18.8465 13.9136 18.8104C13.9769 18.8375 14.031 18.8556 14.1033 18.8736ZM14.311 15.1801C14.302 15.1891 14.302 15.2072 14.2929 15.2162C14.2568 15.2162 14.2117 15.2252 14.1755 15.2252C14.1665 15.2252 14.1484 15.2072 14.1394 15.1981C14.1484 15.1801 14.1665 15.162 14.1936 15.1349C14.1304 15.1259 14.0852 15.1169 14.022 15.1078C14.0762 15.0627 14.1304 15.0627 14.1755 15.0898C14.2207 15.1169 14.2568 15.144 14.311 15.1801ZM13.5705 18.9098C13.5885 18.9278 13.6066 18.9459 13.6156 18.9549C13.6879 18.9369 13.715 18.9459 13.733 19.0001C13.7421 19.0272 13.724 19.0452 13.6879 19.0543C13.6337 19.0633 13.6066 19.0452 13.5795 19.0001C13.5705 18.973 13.5614 18.9459 13.5524 18.9188C13.5614 18.9098 13.5705 18.9098 13.5705 18.9098ZM11.963 17.9525C12.0714 17.9615 12.0714 17.9615 12.0714 18.0699C12.0353 18.0518 12.0082 18.0428 11.972 18.0248C11.972 17.9977 11.972 17.9706 11.963 17.9525ZM11.8727 17.6816C11.9179 17.7538 11.9811 17.799 11.963 17.9074C11.9359 17.8622 11.9179 17.8261 11.8998 17.799C11.8727 17.7719 11.8456 17.7448 11.8727 17.6816ZM13.6879 18.8285C13.6608 18.8195 13.6427 18.8104 13.6156 18.8014C13.6337 18.7743 13.6427 18.7562 13.6518 18.7292C13.7059 18.7562 13.7059 18.7562 13.6879 18.8285ZM14.4916 14.7195C14.4555 14.7015 14.4284 14.6924 14.4013 14.6744C14.4284 14.6563 14.4555 14.6382 14.4826 14.6202C14.4826 14.6563 14.4916 14.6834 14.4916 14.7195ZM12.3242 18.5124C12.3965 18.5034 12.4055 18.5485 12.4326 18.5847C12.3784 18.5937 12.3604 18.5485 12.3242 18.5124ZM14.5368 18.1422C14.5097 18.2054 14.5097 18.2054 14.4645 18.1783C14.4826 18.1422 14.5006 18.1241 14.5368 18.1422ZM14.2568 14.8911C14.3381 14.9182 14.3381 14.9182 14.302 14.9814C14.2929 14.9543 14.2749 14.9362 14.2568 14.8911ZM12.2701 18.4311C12.2881 18.4402 12.3062 18.4582 12.3242 18.4673C12.3242 18.4763 12.3152 18.4763 12.3152 18.4853C12.2971 18.4763 12.2791 18.4582 12.261 18.4492C12.2701 18.4402 12.2701 18.4311 12.2701 18.4311ZM14.5006 18.8014C14.5097 18.7833 14.5187 18.7653 14.5368 18.7382C14.5639 18.7833 14.5458 18.8014 14.5277 18.8195C14.5187 18.8104 14.5097 18.8104 14.5006 18.8014ZM12.5229 18.1422C12.5049 18.1241 12.4868 18.106 12.4687 18.0789C12.4687 18.0789 12.4778 18.0699 12.4778 18.0609C12.5049 18.0789 12.5229 18.097 12.541 18.1151C12.5319 18.1241 12.5229 18.1331 12.5229 18.1422ZM13.7601 18.6569C13.7421 18.6659 13.733 18.675 13.733 18.675C13.724 18.6659 13.715 18.6479 13.7059 18.6388C13.715 18.6388 13.724 18.6298 13.724 18.6298C13.7421 18.6388 13.7421 18.6479 13.7601 18.6569ZM13.5614 18.5485C13.5434 18.5395 13.5344 18.5214 13.5163 18.5124C13.5253 18.5034 13.5253 18.4944 13.5344 18.4944C13.5524 18.5034 13.5614 18.5214 13.5795 18.5395C13.5705 18.5395 13.5705 18.5485 13.5614 18.5485ZM13.8865 18.1602C13.8775 18.1692 13.8595 18.1783 13.8414 18.1873V18.1783C13.8504 18.1602 13.8595 18.1422 13.8685 18.1331C13.8775 18.1422 13.8775 18.1512 13.8865 18.1602ZM13.9588 18.7472C13.9769 18.7472 13.9949 18.7472 14.022 18.7382V18.7292C14.0039 18.7201 13.9859 18.7111 13.9769 18.7111C13.9678 18.7201 13.9588 18.7382 13.9588 18.7472Z" fill="white"/>
</svg>
